@startuml
class "FileHandler" as C_0002918291441898942593
class C_0002918291441898942593 {
+FileHandler() = default : void
+~FileHandler() constexpr = default : void
..
+getContent(std::filesystem::path) const : std::vector<std::string>
+writeToFile(const File &) const : void
__
}
enum "LineInfo" as C_0013059671478031576551
enum C_0013059671478031576551 {
None
Insert
Changed
}
class "MatrixIterator" as C_0000499915192627540946
class C_0000499915192627540946 {
+MatrixIterator(const std::vector<std::string> & t_matrix, int t_index, bool t_flag) : void
..
+end(size_t) const : bool
+getLine() const : std::string_view
+next() : void
__
-currLine_ : std::string_view
-forwarded_ : bool
+index_ : int
-matrix_ : const std::vector<std::string> &
}
class "Matrix" as C_0004693371551043460138
class C_0004693371551043460138 {
+Matrix(const std::vector<std::string> & t_lines) : void
..
+backwardIterator(size_t) const : MatrixIterator
+deleteCharacter(int row, int col) : void
+deleteLine(int row) : void
+deleteRange(int row, int startCol, int len) : void
+forwardIterator(size_t) const : MatrixIterator
+getCharCount() const : int
+getLine(int row) const : std::string_view
+getLineLength(int row) const : int
+getLineSubstr(int row, int col) const : std::string_view
+getLineSubstr(int row, int col, int n) const : std::string_view
+getLinesCount() const : int
+insertCharacter(int row, int col, char c) : void
+insertLine(int row, std::string line) : void
+insertRange(int row, int startCol, std::string_view range) : void
__
-charsCount_ : int
+lineInfo_ : std::vector<LineInfo>
-lines_ : std::vector<std::string>
{static} +separators_ : const std::string
}
class "File" as C_0008611533756821712008
class C_0008611533756821712008 {
+File() = deleted : void
+File(const Matrix &, std::filesystem::path, FileId) : void
+~File() noexcept = default : void
__
+fileId_ : FileId
+filesPath_ : std::filesystem::path
+textBuffer_ : Matrix
+undoStack_ : std::stack<int>
}
class "FilesManager" as C_0011153622041461101778
class C_0011153622041461101778 {
+FilesManager(const FileHandler &, int argc, char ** argv) : void
+~FilesManager() noexcept = default : void
..
+addFile(const Matrix &, const std::filesystem::path &) : void
+getFile(FileId) : File &
+getFile() : File &
__
+activeFileId_ : FileId
{static} +fileIdCounter_ : FileId
+files_ : std::unordered_map<FileId,File>
}
enum "SplitType" as C_0008158980544207669507
enum C_0008158980544207669507 {
Vertical
Horizontal
}
enum "AddedPaneRotation" as C_0013779843291423112521
enum C_0013779843291423112521 {
Top
Bottom
Right
Left
}
enum "PaneSizeChange" as C_0004021122790263154412
enum C_0004021122790263154412 {
Expand
Contract
}
class "Coordinates" as C_0015327863434121932138
class C_0015327863434121932138 {
+Coordinates() = deleted : void
+Coordinates(int, int, int, int) : void
+~Coordinates() constexpr noexcept = default : void
__
+endX : int
+endY : int
+startX : int
+startY : int
}
class "TextIndex" as C_0006643307906254661071
class C_0006643307906254661071 {
+TextIndex() = deleted : void
+TextIndex(int, int) : void
+~TextIndex() constexpr noexcept = default : void
__
+indexX : int
+indexY : int
}
class "Cursor" as C_0000605994528586582938
class C_0000605994528586582938 {
+Cursor() : void
+~Cursor() constexpr noexcept = default : void
..
+decrementX() : void
+decrementY() : void
+getX() const : int
+getY() const : int
+incrementX() : void
+incrementY() : void
+isVisible() const : bool
+setVisible(bool) : void
+setX(int) : void
+setY(int) : void
__
-absent_ : int
-visible_ : bool
-x_ : int
-y_ : int
}
class "Pane" as C_0009641012333666485056
class C_0009641012333666485056 {
+Pane() = deleted : void
+Pane(PaneId, FileId) : void
+~Pane() constexpr noexcept = default : void
__
+cursor_ : Cursor
+fileId_ : FileId
+paneId_ : PaneId
+textIndex_ : TextIndex
}
class "SplitNode" as C_0002534243237892489902
class C_0002534243237892489902 {
+SplitNode(SplitType) : void
+SplitNode(Pane) : void
+~SplitNode() constexpr noexcept = default : void
__
+leftChild : std::unique_ptr<SplitNode>
+leftChildRation : float
+nodeType : std::variant<Pane,SplitType>
+rightChild : std::unique_ptr<SplitNode>
}
class "PanesManager" as C_0001089593565127701584
class C_0001089593565127701584 {
+PanesManager() : void
+~PanesManager() constexpr noexcept = default : void
..
+addPane(PaneId t_parent, FileId t_fileId, AddedPaneRotation t_rotation) : void
-getAllSplitNode() : std::vector<SplitNode *>
+getCurrPane() : std::optional<Pane>
+getPane(PaneId) : std::optional<Pane>
+getPaneCoordinates(int t_height, int t_width) const : std::vector<PaneInfo>
-getPaneParentPointer(PaneId) : std::optional<SplitNode *>
-getPanePointer(PaneId) : std::optional<SplitNode *>
+removePane(PaneId) : void
+resetRatios() : void
+shiftPane(PaneId, PaneSizeChange) : void
__
-activePaneId_ : PaneId
-head_ : SplitNode *
{static} -paneIdCounter_ : PaneId
}
class "TabLayout" as C_0011513247658760718338
class C_0011513247658760718338 {
+TabLayout() = default : void
+TabLayout(int activeTab_t, int t_tabCapLines, const std::vector<std::string> & tabs_t) : void
+~TabLayout() constexpr noexcept = default : void
__
+activeTab : int
+tabCapturedLinesOffsetY : int
+tabs : std::vector<std::string>
}
class "CommandLineLayout" as C_0017616088576490786441
class C_0017616088576490786441 {
+CommandLineLayout() = default : void
+CommandLineLayout(Modes mode_t, std::string, std::string, std::string, std::string, std::string) : void
+~CommandLineLayout() constexpr noexcept = default : void
__
+comAndCursorInfo : std::string
+commandLineArgs : std::string
+currFileName : std::string
+fileInfo : std::string
+mode : Modes
+modeName : std::string
}
class "PanesLayout" as C_0014595169417664517116
class C_0014595169417664517116 {
+PanesLayout() = default : void
+PanesLayout(int t_startX, int t_startY, int t_endX, int t_endY, int t_leftDataOffsetX, const std::vector<std::string> & t_leftData, const std::vector<std::string> & t_lines) : void
+~PanesLayout() constexpr noexcept = default : void
__
+endX : int
+endY : int
+leftData : std::vector<std::string>
+leftDataOffsetX : int
+lines : std::vector<std::string>
+startX : int
+startY : int
}
enum "CursorType" as C_0012464367428066152662
enum C_0012464367428066152662 {
Line
Block
}
class "CursorLayout" as C_0012615196957786652613
class C_0012615196957786652613 {
+CursorLayout() = default : void
+CursorLayout(bool t_visible, int t_cursorX, int t_cursorY, char t_letter, CursorType) : void
+~CursorLayout() constexpr noexcept = default : void
__
+cursorType : CursorType
+cursorX : int
+cursorY : int
+letter : char
+visible : bool
}
class "LayoutManager" as C_0003126014528773811188
class C_0003126014528773811188 {
+LayoutManager() = deleted : void
+LayoutManager(EditorCore &, const Config &, const Settings &) : void
+~LayoutManager() constexpr noexcept = default : void
..
-addCommandLineLayout(PanesManager & t_panesManager, const Settings & t_constConfig, const EditorState & t_editorState, const EditorInputAndOutput & t_io, FilesManager & t_filesManager) : void
-addCursorLayout(PanesManager & t_paneManager, const Settings & t_config, FilesManager & t_filesManager, int t_tabOffsetY) : void
-addPanesLayout(FilesManager &, const PanesManager &, const Settings &, int t_tabOffsetY, const Config &) : void
-addTabLayout(const FilesManager &, const Settings &) : void
__
+commandLineLayout : CommandLineLayout
+cursorLayout : CursorLayout
+panesLayout : std::vector<PanesLayout>
+tabLayout : TabLayout
+windowHeight : int
+windowWidth : int
}
class "CommandStructure" as C_0010644382166562200619
class C_0010644382166562200619 {
+CommandStructure() = default : void
+~CommandStructure() constexpr noexcept = default : void
__
+args_ : std::vector<std::string>
+command_ : std::string
}
class "CommandMode" as C_0005074260391803520833
class C_0005074260391803520833 {
+CommandMode() : void
+~CommandMode() noexcept = default : void
..
+HandleKeyboardInput(EditorState &, EditorInputAndOutput &, FileHandler &, FilesManager &) : void
+closeProgramme(EditorState &, EditorInputAndOutput &, FileHandler &, FilesManager &, const CommandStructure &) : void
+openFile(EditorState &, EditorInputAndOutput &, FileHandler &, FilesManager &, const CommandStructure &) : void
-parseCommand(std::string input) : CommandStructure
+writeToFile(EditorState &, EditorInputAndOutput &, FileHandler &, FilesManager &, const CommandStructure &) : void
__
-commands_ : std::unordered_map<std::string,Func>
}
class "InsertMode" as C_0012293538125726347222
class C_0012293538125726347222 {
+InsertMode() : void
+~InsertMode() = default : void
..
+HandleKeyboardInput(EditorState &, EditorInputAndOutput &, File &, Cursor &) const : void
-handleBackspace(File &, Cursor &) const : void
-handleEnter(File &, Cursor &) const : void
__
-commands_ : std::unordered_map<char,Func>
}
class "WindowSubCommandTable" as C_0014091801827559718395
class C_0014091801827559718395 {
+WindowSubCommandTable() : void
+~WindowSubCommandTable() noexcept = default : void
..
+closePane(PanesManager &) const : void
+horizontalSplit(PanesManager &) const : void
+movePaneDown(PanesManager &) const : void
+movePaneLeft(PanesManager &) const : void
+movePaneRight(PanesManager &) const : void
+movePaneUp(PanesManager &) const : void
+verticalSplit(PanesManager &) const : void
__
-functionMap_ : std::unordered_map<char,Func>
}
class "WindowSubCommandExecutor" as C_0000948221606077863507
class C_0000948221606077863507 {
+WindowSubCommandExecutor() = deleted : void
+WindowSubCommandExecutor(const WindowSubCommandTable &) : void
+~WindowSubCommandExecutor() constexpr noexcept = default : void
__
}
class "MotionRange" as C_0009427962241399365514
class C_0009427962241399365514 {
__
+x : int
+y : int
}
class "NormalModeTable" as C_0008676354845899506631
class C_0008676354845899506631 {
+NormalModeTable() : void
+~NormalModeTable() noexcept = default : void
..
+actionDeleteChar(Matrix & text, Cursor & cursor, EditorState & state) const : void
+actionInsertLineAbove(Matrix & text, Cursor & cursor, EditorState & state) const : void
+actionInsertLineBelow(Matrix & text, Cursor & cursor, EditorState & state) const : void
+actionSwitchToInsertLeft(Matrix & text, Cursor & cursor, EditorState & state) const : void
+actionSwitchToInsertRight(Matrix & text, Cursor & cursor, EditorState & state) const : void
+findFirstCharLeft(Matrix & text, Cursor & cursor, EditorState & state, char) const : void
+findFirstCharRight(Matrix & text, Cursor & cursor, EditorState & state, char) const : void
+motionEndOfWORD(Matrix & text, Cursor & cursor, EditorState & state) const : void
+motionEndOfWord(Matrix & text, Cursor & cursor, EditorState & state) const : void
+motionLine(Matrix & text, Cursor & cursor, EditorState & state, MotionRange &, MotionRange &) const : void
+motionMoveCursorBottomFile(Matrix & text, Cursor & cursor, EditorState & state) const : void
+motionMoveCursorDown(Matrix & text, Cursor & cursor, EditorState & state) const : void
+motionMoveCursorLeft(Matrix & text, Cursor & cursor, EditorState & state) const : void
+motionMoveCursorRight(Matrix & text, Cursor & cursor, EditorState & state) const : void
+motionMoveCursorUp(Matrix & text, Cursor & cursor, EditorState & state) const : void
+motionMoveLeftMost(Matrix & text, Cursor & cursor, EditorState & state) const : void
+motionMoveLeftMostChar(Matrix & text, Cursor & cursor, EditorState & state) const : void
+motionMoveRightMost(Matrix & text, Cursor & cursor, EditorState & state) const : void
+motionStartOfNextWORD(Matrix & text, Cursor & cursor, EditorState & state) const : void
+motionStartOfNextWord(Matrix & text, Cursor & cursor, EditorState & state) const : void
+motionStartOfPrevWORD(Matrix & text, Cursor & cursor, EditorState & state) const : void
+motionStartOfPrevWord(Matrix & text, Cursor & cursor, EditorState & state) const : void
+operationCopyText(Matrix & text, Cursor & cursor, EditorState & state, const MotionRange &, const MotionRange &) const : void
+operationDeleteChar(Matrix & text, Cursor & cursor, EditorState & state, const MotionRange &, const MotionRange &) const : void
+replaceChar(Matrix & text, Cursor & cursor, EditorState & state, char) const : void
+switchToWindowMode(Matrix & text, Cursor & cursor, EditorState & state) const : void
__
+actions : std::unordered_map<char,Func>
+motions : std::unordered_map<char,Func>
+operations : std::unordered_map<char,Func2>
+textObjects : std::unordered_map<char,Func3>
}
enum "ParsingStages" as C_0012699030901556025511
enum C_0012699030901556025511 {
Count1OperationMotionTextObject
Count2MotionTextObject
WaitingForTargetChar
Finish
}
class "NormalModeCommand" as C_0017832411717760654500
class C_0017832411717760654500 {
+NormalModeCommand(int count1, char operation, int count2, char motion, char textObject, char targetChar, bool ignoreCount, ParsingStages stage) : void
__
+count1 : int
+count2 : int
+ignoreCount : bool
+motion : char
+operation : char
+stage : ParsingStages
+targetChar : char
+textObject : char
}
class "NormalModeParser" as C_0000298199083752434582
class C_0000298199083752434582 {
+NormalModeParser(const NormalModeTable &) : void
+NormalModeParser(const NormalModeTable &, int count1, char operation, int count2, char motion, char textObject, char targetChar, bool ignoreCount, ParsingStages stage) : void
+~NormalModeParser() constexpr noexcept = default : void
..
+clear() : void
+executeCommand() const : bool
+getCommand() const : NormalModeCommand
-parseAction(char inputChar) const : bool
+parseCommand(std::string & input) : void
-parseCount1(char inputChar) const : bool
-parseCount2(char inputChar) const : bool
-parseMotion(char inputChar) const : bool
-parseOperation(char inputChar) const : bool
-parseTextObject(char inputChar) const : bool
__
-command : NormalModeCommand
-table : const NormalModeTable &
}
class "NormalModeExecutor" as C_0006600579433868664182
class C_0006600579433868664182 {
+NormalModeExecutor(const NormalModeTable & table) : void
+~NormalModeExecutor() constexpr noexcept = default : void
..
+executeNormalModeCommand(Matrix & text, Cursor & t_cursor, EditorState & state, const NormalModeCommand command) : void
__
-table : const NormalModeTable &
}
class "NormalMode" as C_0007529857750796474345
class C_0007529857750796474345 {
+NormalMode() : void
+~NormalMode() noexcept = default : void
..
+HandleKeyboardInput(File &, Cursor &, EditorState &, EditorInputAndOutput &) : void
__
-executor : NormalModeExecutor
-parser : NormalModeParser
-table : NormalModeTable
}
class "nlohmann::basic_json" as C_0008843406913308057517
class C_0008843406913308057517 {
__
}
class "WindowConfig" as C_0006925991752718742041
class C_0006925991752718742041 {
+WindowConfig() = default : void
+WindowConfig(const Json &) : void
+~WindowConfig() constexpr noexcept = default : void
__
{static} -KeyFpsLimit : const std::basic_string_view<char>
{static} -KeyHeight : const std::basic_string_view<char>
{static} -KeyMinHeight : const std::basic_string_view<char>
{static} -KeyMinWidth : const std::basic_string_view<char>
{static} -KeyTitle : const std::basic_string_view<char>
{static} -KeyWidth : const std::basic_string_view<char>
+fps_limit : int
+height : int
+minHeight : int
+minWidth : int
+title : std::string
+width : int
}
class "AutoSave" as C_0007309718600355555336
class C_0007309718600355555336 {
+AutoSave() = default : void
+AutoSave(const Json &) : void
+~AutoSave() constexpr noexcept = default : void
__
{static} -KeyEnable : const std::basic_string_view<char>
{static} -KeyInterval_s : const std::basic_string_view<char>
+enabled : bool
+interval_s : int
}
enum "IndentType" as C_0015049296848830142038
enum C_0015049296848830142038 {
Space
Tabs
}
class "FeelConfig" as C_0003870915981411065967
class C_0003870915981411065967 {
+FeelConfig() = default : void
+FeelConfig(const Json &) : void
+~FeelConfig() constexpr noexcept = default : void
__
{static} -KeyAutoSave : const std::basic_string_view<char>
{static} -KeyCursorBlinkMs : const std::basic_string_view<char>
{static} -KeyIndentSize : const std::basic_string_view<char>
{static} -KeyIndentType : const std::basic_string_view<char>
{static} -KeyWrapText : const std::basic_string_view<char>
+autoSave : AutoSave
+cursorBlinkMs : int
+indentSize : int
+indentType : IndentType
+wrapText : bool
}
class "VerticalRuler" as C_0002535713228156635633
class C_0002535713228156635633 {
+VerticalRuler() = default : void
+VerticalRuler(const Json &) : void
+~VerticalRuler() constexpr noexcept = default : void
__
{static} -KeyColumn : const std::basic_string_view<char>
{static} -KeyEnabled : const std::basic_string_view<char>
+column : int
+enabled : bool
}
enum "LineNumberModes" as C_0012863436700284520669
enum C_0012863436700284520669 {
None
Relative
Number
}
class "View" as C_0007547292977757101841
class C_0007547292977757101841 {
+View() = default : void
+View(const Json &) : void
+~View() constexpr noexcept = default : void
__
{static} -KeyLineNumberMode : const std::basic_string_view<char>
{static} -KeyVerticalRuler : const std::basic_string_view<char>
+lineNumberMode : LineNumberModes
+verticalRuler : VerticalRuler
}
class "EditorConfig" as C_0014511316739402001150
class C_0014511316739402001150 {
+EditorConfig() = default : void
+EditorConfig(const Json &) : void
+~EditorConfig() constexpr noexcept = default : void
__
{static} -KeyFeel : const std::basic_string_view<char>
{static} -KeyView : const std::basic_string_view<char>
+feel : FeelConfig
+view : View
}
class "TextFonts" as C_0017976227713769243397
class C_0017976227713769243397 {
+TextFonts() = default : void
+TextFonts(const Json &) : void
+~TextFonts() constexpr noexcept = default : void
__
{static} -KeyPath : const std::basic_string_view<char>
{static} -KeySize : const std::basic_string_view<char>
+path : std::string
+size : int
}
class "FontsConfig" as C_0002043422620661615062
class C_0002043422620661615062 {
+FontsConfig() = default : void
+FontsConfig(const Json &) : void
+~FontsConfig() constexpr noexcept = default : void
__
{static} -KeyCode : const std::basic_string_view<char>
{static} -KeyUi : const std::basic_string_view<char>
+code : TextFonts
+ui : TextFonts
}
class "ThemeConfig" as C_0013341857656723106740
class C_0013341857656723106740 {
+ThemeConfig() = default : void
+ThemeConfig(const Json &) : void
+~ThemeConfig() constexpr noexcept = default : void
__
{static} -KeyBackground : const std::basic_string_view<char>
{static} -KeyCodeText : const std::basic_string_view<char>
{static} -KeyCursor : const std::basic_string_view<char>
{static} -KeyForeground : const std::basic_string_view<char>
{static} -KeyHighlight : const std::basic_string_view<char>
{static} -KeyMain : const std::basic_string_view<char>
{static} -KeySecondary : const std::basic_string_view<char>
{static} -KeyUiText : const std::basic_string_view<char>
+background : SDL_Color
+codeText : SDL_Color
+cursor : SDL_Color
+foreground : SDL_Color
+highlight : SDL_Color
+main : SDL_Color
+secondary : SDL_Color
+uiText : SDL_Color
}
class "Config" as C_0008289891971916880997
class C_0008289891971916880997 {
+Config() : void
+~Config() constexpr noexcept = default : void
__
{static} -KeyEditor : const std::basic_string_view<char>
{static} -KeyFonts : const std::basic_string_view<char>
{static} -KeyTheme : const std::basic_string_view<char>
{static} -KeyWindow : const std::basic_string_view<char>
+editor : EditorConfig
+fonts : FontsConfig
+theme : ThemeConfig
+window : WindowConfig
}
class "CharSettings" as C_0008222671835411490353
class C_0008222671835411490353 {
+CharSettings() = default : void
+~CharSettings() constexpr noexcept = default : void
__
+codeCharHeight : int
+codeCharWidth : int
+tabHeight : int
+uiCharHeight : int
+uiCharWidth : int
}
class "WindowSettings" as C_0006702696154422811292
class C_0006702696154422811292 {
+WindowSettings() = default : void
+~WindowSettings() constexpr noexcept = default : void
__
+height : int
+width : int
}
class "Settings" as C_0000044394183364887320
class C_0000044394183364887320 {
+Settings(const Config &) : void
+~Settings() constexpr noexcept = default : void
__
+charSettings : CharSettings
{static} +paddingX : const int
+windowSettings : WindowSettings
}
enum "Modes" as C_0005029623504356834829
enum C_0005029623504356834829 {
Normal
Insert
Command
}
enum "SpecialKeys" as C_0000600665016167899302
enum C_0000600665016167899302 {
Backspace
Enter
LeftArrow
UpArrow
RightArrow
DownArrow
Tab
Escape
}
class "EditorState" as C_0001199085475404894889
class C_0001199085475404894889 {
+EditorState() = deleted : void
+EditorState(FileId) : void
+~EditorState() constexpr noexcept = default : void
__
+activeFileId_ : FileId
+currentMode_ : Modes
+running_ : bool
}
class "EditorInputAndOutput" as C_0014421814088461862077
class C_0014421814088461862077 {
+EditorInputAndOutput() = default : void
+~EditorInputAndOutput() constexpr noexcept = default : void
__
+commandLineMessage_ : std::string
+input_ : std::string
}
class "EditorCore" as C_0002215001822974810344
class C_0002215001822974810344 {
+EditorCore() = deleted : void
+EditorCore(int argc, char ** argv, Settings &) : void
+~EditorCore() noexcept = default : void
..
-EncodeInput(const SDL_Event &) : std::string
+HandleKeyboardInput() : void
+getEditorInputAndOutput() const : const EditorInputAndOutput &
+getEditorState() const : const EditorState &
+getFilesManager() : FilesManager &
+getPanesManager() : PanesManager &
__
-commandMode_ : CommandMode
+dirty : bool
-editorInputAndOutput_ : EditorInputAndOutput
-editorState_ : EditorState
-fileHandler_ : FileHandler
-filesManager_ : FilesManager
-insertMode_ : InsertMode
-normalMode_ : NormalMode
-panesManager_ : PanesManager
-settings_ : Settings &
}
class "Document" as C_0000418121225864476394
class C_0000418121225864476394 {
__
}
class "TextBufferView" as C_0002928650556855873887
class C_0002928650556855873887 {
__
}
class "Renderer" as C_0018004500907526464145
class C_0018004500907526464145 {
+Renderer() = deleted : void
+Renderer(const Config &, const Settings &) : void
+~Renderer() noexcept : void
..
+Render(const LayoutManager &) const : void
-RenderCommandLine(const CommandLineLayout &) const : void
-RenderCursor(const CursorLayout &) const : void
-RenderPanes(const std::vector<PanesLayout> &) const : void
-RenderTabs(const TabLayout &) const : void
__
-codeFont_ : TTF_Font *
-commandModeColor_ : SDL_Color
-config_ : const Config &
-insertModeColor_ : SDL_Color
-normalModeColor_ : SDL_Color
-renderer_ : SDL_Renderer *
-settings_ : const Settings &
-uiFont_ : TTF_Font *
-window_ : SDL_Window *
}
class "ConfigAndSettings" as C_0016726519943719072625
class C_0016726519943719072625 {
__
}
C_0002918291441898942593 ..> C_0008611533756821712008
C_0004693371551043460138 ..> C_0000499915192627540946
C_0004693371551043460138 o-- C_0013059671478031576551 : +lineInfo_
C_0008611533756821712008 o-- C_0004693371551043460138 : +textBuffer_
C_0011153622041461101778 ..> C_0002918291441898942593
C_0011153622041461101778 ..> C_0004693371551043460138
C_0011153622041461101778 o-- C_0008611533756821712008 : +files_
C_0009641012333666485056 o-- C_0006643307906254661071 : +textIndex_
C_0009641012333666485056 o-- C_0000605994528586582938 : +cursor_
C_0002534243237892489902 o-- C_0009641012333666485056 : +nodeType
C_0002534243237892489902 o-- C_0008158980544207669507 : +nodeType
C_0002534243237892489902 o-- C_0002534243237892489902 : +leftChild
C_0002534243237892489902 o-- C_0002534243237892489902 : +rightChild
C_0001089593565127701584 ..> C_0009641012333666485056
C_0001089593565127701584 ..> C_0013779843291423112521
C_0001089593565127701584 ..> C_0004021122790263154412
C_0001089593565127701584 ..> C_0006643307906254661071
C_0001089593565127701584 ..> C_0000605994528586582938
C_0001089593565127701584 ..> C_0015327863434121932138
C_0001089593565127701584 --> C_0002534243237892489902 : -head_
C_0017616088576490786441 o-- C_0005029623504356834829 : +mode
C_0012615196957786652613 o-- C_0012464367428066152662 : +cursorType
C_0003126014528773811188 ..> C_0002215001822974810344
C_0003126014528773811188 ..> C_0008289891971916880997
C_0003126014528773811188 ..> C_0000044394183364887320
C_0003126014528773811188 ..> C_0011153622041461101778
C_0003126014528773811188 ..> C_0001089593565127701584
C_0003126014528773811188 ..> C_0001199085475404894889
C_0003126014528773811188 ..> C_0014421814088461862077
C_0003126014528773811188 o-- C_0011513247658760718338 : +tabLayout
C_0003126014528773811188 o-- C_0014595169417664517116 : +panesLayout
C_0003126014528773811188 o-- C_0012615196957786652613 : +cursorLayout
C_0003126014528773811188 o-- C_0017616088576490786441 : +commandLineLayout
C_0005074260391803520833 o-- C_0005074260391803520833 : -commands_
C_0005074260391803520833 --> C_0001199085475404894889 : -commands_
C_0005074260391803520833 --> C_0014421814088461862077 : -commands_
C_0005074260391803520833 --> C_0002918291441898942593 : -commands_
C_0005074260391803520833 --> C_0011153622041461101778 : -commands_
C_0005074260391803520833 --> C_0010644382166562200619 : -commands_
C_0012293538125726347222 ..> C_0001199085475404894889
C_0012293538125726347222 ..> C_0014421814088461862077
C_0012293538125726347222 o-- C_0012293538125726347222 : -commands_
C_0012293538125726347222 --> C_0008611533756821712008 : -commands_
C_0012293538125726347222 --> C_0000605994528586582938 : -commands_
C_0014091801827559718395 o-- C_0014091801827559718395 : -functionMap_
C_0014091801827559718395 --> C_0001089593565127701584 : -functionMap_
C_0000948221606077863507 ..> C_0014091801827559718395
C_0008676354845899506631 o-- C_0008676354845899506631 : +operations
C_0008676354845899506631 --> C_0004693371551043460138 : +operations
C_0008676354845899506631 --> C_0000605994528586582938 : +operations
C_0008676354845899506631 --> C_0001199085475404894889 : +operations
C_0008676354845899506631 --> C_0009427962241399365514 : +operations
C_0008676354845899506631 o-- C_0008676354845899506631 : +actions
C_0008676354845899506631 --> C_0004693371551043460138 : +actions
C_0008676354845899506631 --> C_0000605994528586582938 : +actions
C_0008676354845899506631 --> C_0001199085475404894889 : +actions
C_0008676354845899506631 o-- C_0008676354845899506631 : +motions
C_0008676354845899506631 --> C_0004693371551043460138 : +motions
C_0008676354845899506631 --> C_0000605994528586582938 : +motions
C_0008676354845899506631 --> C_0001199085475404894889 : +motions
C_0008676354845899506631 o-- C_0008676354845899506631 : +textObjects
C_0008676354845899506631 --> C_0004693371551043460138 : +textObjects
C_0008676354845899506631 --> C_0000605994528586582938 : +textObjects
C_0008676354845899506631 --> C_0001199085475404894889 : +textObjects
C_0017832411717760654500 o-- C_0012699030901556025511 : +stage
C_0000298199083752434582 ..> C_0012699030901556025511
C_0000298199083752434582 --> C_0008676354845899506631 : -table
C_0000298199083752434582 o-- C_0017832411717760654500 : -command
C_0006600579433868664182 ..> C_0004693371551043460138
C_0006600579433868664182 ..> C_0000605994528586582938
C_0006600579433868664182 ..> C_0001199085475404894889
C_0006600579433868664182 ..> C_0017832411717760654500
C_0006600579433868664182 --> C_0008676354845899506631 : -table
C_0007529857750796474345 ..> C_0008611533756821712008
C_0007529857750796474345 ..> C_0000605994528586582938
C_0007529857750796474345 ..> C_0001199085475404894889
C_0007529857750796474345 ..> C_0014421814088461862077
C_0007529857750796474345 o-- C_0008676354845899506631 : -table
C_0007529857750796474345 o-- C_0000298199083752434582 : -parser
C_0007529857750796474345 o-- C_0006600579433868664182 : -executor
C_0006925991752718742041 ..> C_0008843406913308057517
C_0007309718600355555336 ..> C_0008843406913308057517
C_0003870915981411065967 ..> C_0008843406913308057517
C_0003870915981411065967 o-- C_0015049296848830142038 : +indentType
C_0003870915981411065967 o-- C_0007309718600355555336 : +autoSave
C_0002535713228156635633 ..> C_0008843406913308057517
C_0007547292977757101841 ..> C_0008843406913308057517
C_0007547292977757101841 o-- C_0002535713228156635633 : +verticalRuler
C_0007547292977757101841 o-- C_0012863436700284520669 : +lineNumberMode
C_0014511316739402001150 ..> C_0008843406913308057517
C_0014511316739402001150 o-- C_0003870915981411065967 : +feel
C_0014511316739402001150 o-- C_0007547292977757101841 : +view
C_0017976227713769243397 ..> C_0008843406913308057517
C_0002043422620661615062 ..> C_0008843406913308057517
C_0002043422620661615062 o-- C_0017976227713769243397 : +code
C_0002043422620661615062 o-- C_0017976227713769243397 : +ui
C_0013341857656723106740 ..> C_0008843406913308057517
C_0008289891971916880997 o-- C_0006925991752718742041 : +window
C_0008289891971916880997 o-- C_0014511316739402001150 : +editor
C_0008289891971916880997 o-- C_0002043422620661615062 : +fonts
C_0008289891971916880997 o-- C_0013341857656723106740 : +theme
C_0000044394183364887320 ..> C_0008289891971916880997
C_0000044394183364887320 o-- C_0008222671835411490353 : +charSettings
C_0000044394183364887320 o-- C_0006702696154422811292 : +windowSettings
C_0001199085475404894889 o-- C_0005029623504356834829 : +currentMode_
C_0002215001822974810344 --> C_0000044394183364887320 : -settings_
C_0002215001822974810344 o-- C_0002918291441898942593 : -fileHandler_
C_0002215001822974810344 o-- C_0011153622041461101778 : -filesManager_
C_0002215001822974810344 o-- C_0001089593565127701584 : -panesManager_
C_0002215001822974810344 o-- C_0001199085475404894889 : -editorState_
C_0002215001822974810344 o-- C_0014421814088461862077 : -editorInputAndOutput_
C_0002215001822974810344 o-- C_0007529857750796474345 : -normalMode_
C_0002215001822974810344 o-- C_0012293538125726347222 : -insertMode_
C_0002215001822974810344 o-- C_0005074260391803520833 : -commandMode_
C_0018004500907526464145 ..> C_0003126014528773811188
C_0018004500907526464145 ..> C_0011513247658760718338
C_0018004500907526464145 ..> C_0014595169417664517116
C_0018004500907526464145 ..> C_0012615196957786652613
C_0018004500907526464145 ..> C_0017616088576490786441
C_0018004500907526464145 --> C_0008289891971916880997 : -config_
C_0018004500907526464145 --> C_0000044394183364887320 : -settings_

'Generated with clang-uml, version 0.6.2
'LLVM version Ubuntu clang version 18.1.3 (1ubuntu1)
@enduml
